{"accessors" : [{"bufferView" : 0, "byteOffset" : 0, "componentType" : 5123, "count" : 17280, "type" : "SCALAR", "max" : [12479], "min" : [0]}, {"bufferView" : 1, "byteOffset" : 0, "componentType" : 5126, "count" : 12480, "type" : "VEC3", "max" : [42.41783142089844, 42.67764663696289, 42.41783142089844], "min" : [-42.41783142089844, -42.67764663696289, -42.41783142089844], "name" : "POSITION"}, {"bufferView" : 1, "byteOffset" : 12, "componentType" : 5126, "count" : 12480, "type" : "VEC3", "max" : [1.0000044107437134, 1.0000044107437134, 1.0000044107437134], "min" : [-1.0000044107437134, -1.0000044107437134, -1.0000044107437134], "name" : "NORMAL"}, {"bufferView" : 1, "byteOffset" : 24, "componentType" : 5126, "count" : 12480, "type" : "VEC4", "max" : [1.0000044107437134, 0.0948520228266716, 1.0000044107437134, 0], "min" : [-1.0000044107437134, -0.12945212423801422, -1.0000044107437134, 0], "name" : "TANGENT"}, {"bufferView" : 1, "byteOffset" : 40, "componentType" : 5126, "count" : 12480, "type" : "VEC2", "max" : [1, 1], "min" : [0, 0], "name" : "TEXCOORD_0"}, {"bufferView" : 1, "byteOffset" : 48, "componentType" : 5126, "count" : 12480, "type" : "VEC2", "max" : [1, 1], "min" : [0, 0], "name" : "TEXCOORD_1"}], "asset" : {"generator" : "Aspose.3D 23.4.0", "version" : "2.0"}, "buffers" : [{"uri" : "data:application/octet-stream;base64,", "byteLength" : 1002248}], "bufferViews" : [{"buffer" : 0, "byteOffset" : 0, "byteLength" : 34560, "target" : 34963}, {"buffer" : 0, "byteOffset" : 34564, "byteLength" : 967680, "byteStride" : 56, "target" : 34962}], "images" : [{"uri" : "data:image/jpeg;base64,"}, {"uri" : "data:image/jpeg;base64,"}], "materials" : [{"name" : "Surface.mat", "pbrMetallicRoughness" : {"baseColorFactor" : [1, 1, 1, 1], "baseColorTexture" : {"index" : 0, "texCoord" : 0}, "metallicFactor" : 1, "roughnessFactor" : 0.91}, "normalTexture" : {"index" : 1, "texCoord" : 0, "scale" : 1}, "emissiveTexture" : {"index" : 0, "texCoord" : 0}, "emissiveFactor" : [0.6000000000000001, 0.6000000000000001, 0.6000000000000001], "alphaMode" : "OPAQUE", "doubleSided" : true}], "meshes" : [{"primitives" : [{"attributes" : {"POSITION" : 1, "NORMAL" : 2, "TANGENT" : 3, "TEXCOORD_0" : 4, "TEXCOORD_1" : 5}, "indices" : 0, "material" : 0, "mode" : 4}]}], "nodes" : [{"mesh" : 0, "name" : "Earth_Surface.mat_0"}, {"children" : [0], "matrix" : [100, 0, 0, 0, 0, 99.99999999999866, 1.6292067073209114E-05, 0, 0, -1.6292067073209114E-05, 99.99999999999866, 0, 0, 0, 0, 1], "name" : "Earth"}, {"children" : [1], "name" : "RootNode"}, {"children" : [2], "matrix" : [1, 0, 0, 0, 0, 0, 1, 0, 0, -1, 0, 0, 0, 0, 0, 1], "name" : "5ca68536b7fb477299398f5db4f219ae.fbx"}, {"children" : [3], "matrix" : [1, 0, 0, 0, 0, 2.220446049250313E-16, -1, 0, 0, 1, 2.220446049250313E-16, 0, 0, 0, 0, 1], "name" : "Sketchfab_model"}], "samplers" : [{"magFilter" : 9729, "minFilter" : 9987, "wrapS" : 10497, "wrapT" : 10497}, {"magFilter" : 9729, "minFilter" : 9987, "wrapS" : 10497, "wrapT" : 10497}], "scene" : 0, "scenes" : [{"nodes" : [4]}], "textures" : [{"sampler" : 0, "source" : 0, "name" : ""}, {"sampler" : 1, "source" : 1, "name" : ""}]}